# xmcd
#
# Track frame offsets:
# 150
# 9968
# 26718
# 43948
# 62569
# 80089
# 95019
# 113001
# 128448
# 144970
# 159488
# 173291
# 185862
# 204146
# 221803
# 239871
# 255576
# 272473
# 290441
# 307949
# 323022
#
# Disc length: 4514 seconds
#
#
# Revision: 9
# Processed by: cddbd v1.5.2PL0 Copyright (c) Steve Scherf et al.
# Submitted via: FreeRIP 2.944 
#
DISCID=2011a015
DTITLE=Bravo Hits 48   CD 2
DYEAR=2005
DGENRE=Pop
TTITLE0=Schnappi - 01 - Schnappi, das kleine Krokodil
TTITLE1=Yvonne Catterfeld - 02 - Glaub an mich
TTITLE2=Brian McFadden feat. Delta Goodrem - 03 - Almost Here
TTITLE3=Söhne Mannheims - 04 - Und wenn ein Lied
TTITLE4=Mustafa Sandal feat. Gentleman - 05 - Isyankar
TTITLE5=Alexander feat. Sabrina Weckerlin - 06 - All (I Ever Want)
TTITLE6=Max Mutzke - 07 - Spür' Dein Licht
TTITLE7=Mission Belle - 08 - When It All Began
TTITLE8=Lukas Hilbert feat. Trina - 09 - Kommt meine Liebe nicht bei Dir an
TTITLE9=Die Toten Hosen - 10 - Alles wird vorübergehen
TTITLE10=Ana Johnsson - 11 - Coz I Can
TTITLE11=Good Charlotte - 12 - I Just Wanna Live
TTITLE12=Hoobastank - 13 - Disappear
TTITLE13=3 Doors Down - 14 - Let Me Go
TTITLE14=Martin Kesici feat. Tara Turunen - 15 - Leaving You For Me
TTITLE15=Apocalyptica feat. Marta Jandová - 16 - Wie weit
TTITLE16=Rammstein - 17 - Keine Lust
TTITLE17=Gracia - 18 - Run and Hide
TTITLE18=Nu Pagadi - 19 - Dying Words
TTITLE19=Vanilla Ninja - 20 - I Know
TTITLE20=Silbermond - 21 - Zeit für Optimisten (Live)
EXTD=
EXTT0=
EXTT1=
EXTT2=
EXTT3=
EXTT4=
EXTT5=
EXTT6=
EXTT7=
EXTT8=
EXTT9=
EXTT10=
EXTT11=
EXTT12=
EXTT13=
EXTT14=
EXTT15=
EXTT16=
EXTT17=
EXTT18=
EXTT19=
EXTT20=
PLAYORDER=
